<?xml version="1.0" encoding="UTF-8" standalone="no"?>
<!-- Created with Inkscape (http://www.inkscape.org/) -->

<svg
   width="89mm"
   height="89mm"
   viewBox="0 0 88.999998 88.999998"
   version="1.1"
   id="svg1"
   xml:space="preserve"
   inkscape:version="1.4.3 (0d15f75042, 2025-12-25)"
   sodipodi:docname="logo.svg"
   xmlns:inkscape="http://www.inkscape.org/namespaces/inkscape"
   xmlns:sodipodi="http://sodipodi.sourceforge.net/DTD/sodipodi-0.dtd"
   xmlns="http://www.w3.org/2000/svg"
   xmlns:svg="http://www.w3.org/2000/svg"><sodipodi:namedview
     id="namedview1"
     pagecolor="#ffffff"
     bordercolor="#000000"
     borderopacity="0.25"
     inkscape:showpageshadow="2"
     inkscape:pageopacity="0.0"
     inkscape:pagecheckerboard="true"
     inkscape:deskcolor="#d1d1d1"
     inkscape:document-units="mm"
     inkscape:zoom="1.6234883"
     inkscape:cx="4.9276612"
     inkscape:cy="167.54048"
     inkscape:window-width="1920"
     inkscape:window-height="1132"
     inkscape:window-x="0"
     inkscape:window-y="0"
     inkscape:window-maximized="1"
     inkscape:current-layer="layer2"
     showgrid="true"><inkscape:grid
       type="axonomgrid"
       id="grid1"
       units="mm"
       originx="-330.19543"
       originy="-135.82486"
       spacingx="0.99999999"
       spacingy="3"
       empcolor="#0099e5"
       empopacity="0.30196078"
       color="#0099e5"
       opacity="0.14901961"
       empspacing="5"
       dotted="false"
       gridanglex="30"
       gridanglez="30"
       enabled="true"
       visible="false" /></sodipodi:namedview><defs
     id="defs1" /><g
     inkscape:groupmode="layer"
     id="layer2"
     inkscape:label="Layer 2"
     transform="translate(-330.19545,-135.82485)"><path
       id="die-outer"
       style="display:inline;fill:#ffffff;fill-opacity:1;stroke:none;stroke-width:4.61139;stroke-linecap:butt;stroke-linejoin:miter;stroke-dasharray:none;stroke-opacity:1"
       inkscape:label="die-outer"
       d="m 374.7,136.1 a 5.04,5.04 0 0 0 -2.52,0.67 l -33.93,19.59 a 5.04,5.04 0 0 0 -2.52,4.37 v 39.18 a 5.04,5.04 0 0 0 2.52,4.37 l 33.93,19.59 a 5.04,5.04 0 0 0 5.04,0 l 33.93,-19.59 a 5.04,5.04 0 0 0 2.52,-4.37 v -39.18 a 5.04,5.04 0 0 0 -2.52,-4.37 l -33.93,-19.59 a 5.04,5.04 0 0 0 -2.52,-0.67 z"
       class="die-outer" /><path
       id="die-pips"
       style="fill:#5b9bff;fill-opacity:1;stroke:none;stroke-width:4.61139;stroke-linecap:butt;stroke-linejoin:miter;stroke-dasharray:none;stroke-opacity:1"
       d="m 375.75,146.06 a 3.79,2.22 1.4 0 0 -2.67,0.62 3.79,2.22 1.4 0 0 0.04,3.14 3.79,2.22 1.4 0 0 5.36,0.06 3.79,2.22 1.4 0 0 -0.04,-3.14 3.79,2.22 1.4 0 0 -2.69,-0.68 z m -8.4,4.85 a 3.79,2.22 1.4 0 0 -2.67,0.62 3.79,2.22 1.4 0 0 0.04,3.14 3.79,2.22 1.4 0 0 5.36,0.06 3.79,2.22 1.4 0 0 -0.04,-3.14 3.79,2.22 1.4 0 0 -2.69,-0.68 z m 23.16,3.9 a 3.79,2.22 1.4 0 0 -2.67,0.62 3.79,2.22 1.4 0 0 0.04,3.14 3.79,2.22 1.4 0 0 5.36,0.06 3.79,2.22 1.4 0 0 -0.04,-3.14 3.79,2.22 1.4 0 0 -2.69,-0.68 z M 359.2,155.91 a 3.79,2.22 1.4 0 0 -2.67,0.62 3.79,2.22 1.4 0 0 0.04,3.14 3.79,2.22 1.4 0 0 5.36,0.06 3.79,2.22 1.4 0 0 -0.04,-3.14 3.79,2.22 1.4 0 0 -2.69,-0.68 z m 22.91,3.75 a 3.79,2.22 1.4 0 0 -2.67,0.62 3.79,2.22 1.4 0 0 0.04,3.14 3.79,2.22 1.4 0 0 5.36,0.06 3.79,2.22 1.4 0 0 -0.04,-3.14 3.79,2.22 1.4 0 0 -2.69,-0.68 z m -8.15,5 a 3.79,2.22 1.4 0 0 -2.67,0.62 3.79,2.22 1.4 0 0 0.04,3.14 3.79,2.22 1.4 0 0 5.36,0.06 3.79,2.22 1.4 0 0 -0.04,-3.14 3.79,2.22 1.4 0 0 -2.69,-0.68 z m -27.43,9.32 a 3.79,2.22 58.6 0 0 -1.37,1.89 3.79,2.22 58.6 0 0 2.74,4.61 3.79,2.22 58.6 0 0 2.74,-1.54 3.79,2.22 58.6 0 0 -2.74,-4.61 3.79,2.22 58.6 0 0 -1.37,-0.36 z m 56.34,0 a 2.22,3.79 31.4 0 0 -1.37,0.36 2.22,3.79 31.4 0 0 -2.74,4.61 2.22,3.79 31.4 0 0 2.74,1.54 2.22,3.79 31.4 0 0 2.74,-4.61 2.22,3.79 31.4 0 0 -1.37,-1.89 z m -41.38,8.4 a 3.79,2.22 58.6 0 0 -1.37,1.89 3.79,2.22 58.6 0 0 2.74,4.61 3.79,2.22 58.6 0 0 2.74,-1.54 3.79,2.22 58.6 0 0 -2.74,-4.61 3.79,2.22 58.6 0 0 -1.37,-0.36 z m 26.42,0 a 2.22,3.79 31.4 0 0 -1.37,0.36 2.22,3.79 31.4 0 0 -2.74,4.61 2.22,3.79 31.4 0 0 2.74,1.54 2.22,3.79 31.4 0 0 2.74,-4.61 2.22,3.79 31.4 0 0 -1.37,-1.89 z m -41.38,1.3 a 3.79,2.22 58.6 0 0 -1.37,1.89 3.79,2.22 58.6 0 0 2.74,4.61 3.79,2.22 58.6 0 0 2.74,-1.54 3.79,2.22 58.6 0 0 -2.74,-4.61 3.79,2.22 58.6 0 0 -1.37,-0.36 z m 56.34,0 a 2.22,3.79 31.4 0 0 -1.37,0.36 2.22,3.79 31.4 0 0 -2.74,4.61 2.22,3.79 31.4 0 0 2.74,1.54 2.22,3.79 31.4 0 0 2.74,-4.61 2.22,3.79 31.4 0 0 -1.37,-1.89 z m -41.38,8.4 a 3.79,2.22 58.6 0 0 -1.37,1.89 3.79,2.22 58.6 0 0 2.74,4.61 3.79,2.22 58.6 0 0 2.74,-1.54 3.79,2.22 58.6 0 0 -2.74,-4.61 3.79,2.22 58.6 0 0 -1.37,-0.36 z m 26.42,0 a 2.22,3.79 31.4 0 0 -1.37,0.36 2.22,3.79 31.4 0 0 -2.74,4.61 2.22,3.79 31.4 0 0 2.74,1.54 2.22,3.79 31.4 0 0 2.74,-4.61 2.22,3.79 31.4 0 0 -1.37,-1.89 z m -41.63,1.16 a 3.79,2.22 58.6 0 0 -1.37,1.89 3.79,2.22 58.6 0 0 2.74,4.61 3.79,2.22 58.6 0 0 2.74,-1.54 3.79,2.22 58.6 0 0 -2.74,-4.61 3.79,2.22 58.6 0 0 -1.37,-0.36 z m 56.84,0 a 2.22,3.79 31.4 0 0 -1.37,0.36 2.22,3.79 31.4 0 0 -2.74,4.61 2.22,3.79 31.4 0 0 2.74,1.54 2.22,3.79 31.4 0 0 2.74,-4.61 2.22,3.79 31.4 0 0 -1.37,-1.89 z m -41.89,8.4 a 3.79,2.22 58.6 0 0 -1.37,1.89 3.79,2.22 58.6 0 0 2.74,4.61 3.79,2.22 58.6 0 0 2.74,-1.54 3.79,2.22 58.6 0 0 -2.74,-4.61 3.79,2.22 58.6 0 0 -1.37,-0.36 z m 26.93,0 a 2.22,3.79 31.4 0 0 -1.37,0.36 2.22,3.79 31.4 0 0 -2.74,4.61 2.22,3.79 31.4 0 0 2.74,1.54 2.22,3.79 31.4 0 0 2.74,-4.61 2.22,3.79 31.4 0 0 -1.37,-1.89 z"
       inkscape:label="die-pips"
       class="die-pips" /></g></svg>
