<?xml version="1.0" encoding="UTF-8" standalone="no"?>
<!-- Created with Inkscape (http://www.inkscape.org/) -->

<svg
   width="89mm"
   height="89mm"
   viewBox="0 0 88.999998 88.999998"
   version="1.1"
   id="svg1"
   xml:space="preserve"
   inkscape:version="1.4.3 (0d15f75042, 2025-12-25)"
   sodipodi:docname="logo.svg"
   xmlns:inkscape="http://www.inkscape.org/namespaces/inkscape"
   xmlns:sodipodi="http://sodipodi.sourceforge.net/DTD/sodipodi-0.dtd"
   xmlns="http://www.w3.org/2000/svg"
   xmlns:svg="http://www.w3.org/2000/svg"><sodipodi:namedview
     id="namedview1"
     pagecolor="#ffffff"
     bordercolor="#000000"
     borderopacity="0.25"
     inkscape:showpageshadow="2"
     inkscape:pageopacity="0.0"
     inkscape:pagecheckerboard="true"
     inkscape:deskcolor="#d1d1d1"
     inkscape:document-units="mm"
     inkscape:zoom="1.2059064"
     inkscape:cx="86.24218"
     inkscape:cy="239.65375"
     inkscape:window-width="1920"
     inkscape:window-height="1132"
     inkscape:window-x="0"
     inkscape:window-y="0"
     inkscape:window-maximized="1"
     inkscape:current-layer="layer2"
     showgrid="true"><inkscape:grid
       type="axonomgrid"
       id="grid1"
       units="mm"
       originx="0.33499999"
       originy="0.99999996"
       spacingx="0.99999999"
       spacingy="2.9999999"
       empcolor="#0099e5"
       empopacity="0.30196078"
       color="#0099e5"
       opacity="0.14901961"
       empspacing="5"
       dotted="false"
       gridanglex="30"
       gridanglez="30"
       enabled="true"
       visible="true" /></sodipodi:namedview><defs
     id="defs1" /><g
     inkscape:groupmode="layer"
     id="layer2"
     inkscape:label="Layer 2"
     transform="translate(-330.19545,-135.82485)"><path
       d="m 374.69558,136.10235 c -0.88429,-0.002 -1.75347,0.22926 -2.52026,0.66973 L 338.2456,156.3621 c -1.56118,0.90123 -2.52217,2.56763 -2.52025,4.37027 v 39.18004 c -0.002,1.80245 0.95923,3.46862 2.52025,4.36976 l 33.92972,19.59002 c 0.76624,0.44246 1.63545,0.6754 2.52026,0.67541 0,0 6e-5,-28.43752 0.002,-41.22281 2.8e-4,-1.73208 1.09826,-3.63393 2.59829,-4.49998 7.78761,-4.49622 35.65087,-20.58337 35.69808,-20.61063 0,0 0,5.2e-4 0,5.2e-4 l 0.001,-5.2e-4 c -0.4425,-0.7694 -1.08034,-1.4083 -1.84899,-1.85208 l -33.93022,-19.59002 c -0.76663,-0.44039 -1.63563,-0.67136 -2.51975,-0.66973 z"
       style="display:inline;fill:#ffffff;stroke-width:4.61139"
       id="light-part"
       inkscape:label="light-part"
       class="light-part" /><path
       id="dark-part"
       style="display:inline;fill:#ececec;stroke-width:4.61139"
       d="M 412.99401 158.21418 C 412.94681 158.24148 385.08354 174.32859 377.29593 178.82481 C 375.7959 179.69086 374.69792 181.59271 374.69764 183.32479 C 374.69564 196.11008 374.69558 224.5476 374.69558 224.5476 L 374.69609 224.5476 C 375.58051 224.54739 376.44943 224.31445 377.21532 223.87219 L 411.14555 204.28217 C 411.44985 204.10637 411.73493 203.89923 411.99614 203.66412 C 413.05964 202.70708 413.66628 201.34313 413.66477 199.91241 L 413.66477 160.73237 C 413.66577 159.84888 413.43431 158.98065 412.99401 158.2147 L 412.99401 158.21418 z "
       inkscape:label="dark-part"
       class="dark-part" /><path
       id="die-pips"
       style="fill:#5b9bff;fill-opacity:1;stroke:none;stroke-width:4.61139;stroke-linecap:butt;stroke-linejoin:miter;stroke-dasharray:none;stroke-opacity:1"
       d="m 375.75,146.06 a 3.79,2.22 1.4 0 0 -2.67,0.62 3.79,2.22 1.4 0 0 0.04,3.14 3.79,2.22 1.4 0 0 5.36,0.06 3.79,2.22 1.4 0 0 -0.04,-3.14 3.79,2.22 1.4 0 0 -2.69,-0.68 z m -8.4,4.85 a 3.79,2.22 1.4 0 0 -2.67,0.62 3.79,2.22 1.4 0 0 0.04,3.14 3.79,2.22 1.4 0 0 5.36,0.06 3.79,2.22 1.4 0 0 -0.04,-3.14 3.79,2.22 1.4 0 0 -2.69,-0.68 z m 23.16,3.9 a 3.79,2.22 1.4 0 0 -2.67,0.62 3.79,2.22 1.4 0 0 0.04,3.14 3.79,2.22 1.4 0 0 5.36,0.06 3.79,2.22 1.4 0 0 -0.04,-3.14 3.79,2.22 1.4 0 0 -2.69,-0.68 z M 359.2,155.91 a 3.79,2.22 1.4 0 0 -2.67,0.62 3.79,2.22 1.4 0 0 0.04,3.14 3.79,2.22 1.4 0 0 5.36,0.06 3.79,2.22 1.4 0 0 -0.04,-3.14 3.79,2.22 1.4 0 0 -2.69,-0.68 z m 22.91,3.75 a 3.79,2.22 1.4 0 0 -2.67,0.62 3.79,2.22 1.4 0 0 0.04,3.14 3.79,2.22 1.4 0 0 5.36,0.06 3.79,2.22 1.4 0 0 -0.04,-3.14 3.79,2.22 1.4 0 0 -2.69,-0.68 z m -8.15,5 a 3.79,2.22 1.4 0 0 -2.67,0.62 3.79,2.22 1.4 0 0 0.04,3.14 3.79,2.22 1.4 0 0 5.36,0.06 3.79,2.22 1.4 0 0 -0.04,-3.14 3.79,2.22 1.4 0 0 -2.69,-0.68 z m -27.43,9.32 a 3.79,2.22 58.6 0 0 -1.37,1.89 3.79,2.22 58.6 0 0 2.74,4.61 3.79,2.22 58.6 0 0 2.74,-1.54 3.79,2.22 58.6 0 0 -2.74,-4.61 3.79,2.22 58.6 0 0 -1.37,-0.36 z m 56.34,0 a 2.22,3.79 31.4 0 0 -1.37,0.36 2.22,3.79 31.4 0 0 -2.74,4.61 2.22,3.79 31.4 0 0 2.74,1.54 2.22,3.79 31.4 0 0 2.74,-4.61 2.22,3.79 31.4 0 0 -1.37,-1.89 z m -41.38,8.4 a 3.79,2.22 58.6 0 0 -1.37,1.89 3.79,2.22 58.6 0 0 2.74,4.61 3.79,2.22 58.6 0 0 2.74,-1.54 3.79,2.22 58.6 0 0 -2.74,-4.61 3.79,2.22 58.6 0 0 -1.37,-0.36 z m 26.42,0 a 2.22,3.79 31.4 0 0 -1.37,0.36 2.22,3.79 31.4 0 0 -2.74,4.61 2.22,3.79 31.4 0 0 2.74,1.54 2.22,3.79 31.4 0 0 2.74,-4.61 2.22,3.79 31.4 0 0 -1.37,-1.89 z m -41.38,1.3 a 3.79,2.22 58.6 0 0 -1.37,1.89 3.79,2.22 58.6 0 0 2.74,4.61 3.79,2.22 58.6 0 0 2.74,-1.54 3.79,2.22 58.6 0 0 -2.74,-4.61 3.79,2.22 58.6 0 0 -1.37,-0.36 z m 56.34,0 a 2.22,3.79 31.4 0 0 -1.37,0.36 2.22,3.79 31.4 0 0 -2.74,4.61 2.22,3.79 31.4 0 0 2.74,1.54 2.22,3.79 31.4 0 0 2.74,-4.61 2.22,3.79 31.4 0 0 -1.37,-1.89 z m -41.38,8.4 a 3.79,2.22 58.6 0 0 -1.37,1.89 3.79,2.22 58.6 0 0 2.74,4.61 3.79,2.22 58.6 0 0 2.74,-1.54 3.79,2.22 58.6 0 0 -2.74,-4.61 3.79,2.22 58.6 0 0 -1.37,-0.36 z m 26.42,0 a 2.22,3.79 31.4 0 0 -1.37,0.36 2.22,3.79 31.4 0 0 -2.74,4.61 2.22,3.79 31.4 0 0 2.74,1.54 2.22,3.79 31.4 0 0 2.74,-4.61 2.22,3.79 31.4 0 0 -1.37,-1.89 z m -41.63,1.16 a 3.79,2.22 58.6 0 0 -1.37,1.89 3.79,2.22 58.6 0 0 2.74,4.61 3.79,2.22 58.6 0 0 2.74,-1.54 3.79,2.22 58.6 0 0 -2.74,-4.61 3.79,2.22 58.6 0 0 -1.37,-0.36 z m 56.84,0 a 2.22,3.79 31.4 0 0 -1.37,0.36 2.22,3.79 31.4 0 0 -2.74,4.61 2.22,3.79 31.4 0 0 2.74,1.54 2.22,3.79 31.4 0 0 2.74,-4.61 2.22,3.79 31.4 0 0 -1.37,-1.89 z m -41.89,8.4 a 3.79,2.22 58.6 0 0 -1.37,1.89 3.79,2.22 58.6 0 0 2.74,4.61 3.79,2.22 58.6 0 0 2.74,-1.54 3.79,2.22 58.6 0 0 -2.74,-4.61 3.79,2.22 58.6 0 0 -1.37,-0.36 z m 26.93,0 a 2.22,3.79 31.4 0 0 -1.37,0.36 2.22,3.79 31.4 0 0 -2.74,4.61 2.22,3.79 31.4 0 0 2.74,1.54 2.22,3.79 31.4 0 0 2.74,-4.61 2.22,3.79 31.4 0 0 -1.37,-1.89 z"
       inkscape:label="die-pips"
       class="die-pips" /></g></svg>
