<?xml version="1.0" encoding="UTF-8" standalone="no"?>
<!-- Created with Inkscape (http://www.inkscape.org/) -->

<svg
   width="87.312614mm"
   height="93.756256mm"
   viewBox="0 0 87.312613 93.756254"
   version="1.1"
   id="svg1"
   xml:space="preserve"
   inkscape:version="1.4.3 (0d15f75042, 2025-12-25)"
   sodipodi:docname="logo.svg"
   xmlns:inkscape="http://www.inkscape.org/namespaces/inkscape"
   xmlns:sodipodi="http://sodipodi.sourceforge.net/DTD/sodipodi-0.dtd"
   xmlns="http://www.w3.org/2000/svg"
   xmlns:svg="http://www.w3.org/2000/svg"><sodipodi:namedview
     id="namedview1"
     pagecolor="#777777"
     bordercolor="#000000"
     borderopacity="0.18431373"
     inkscape:showpageshadow="2"
     inkscape:pageopacity="0.0"
     inkscape:pagecheckerboard="true"
     inkscape:deskcolor="#555555"
     inkscape:document-units="mm"
     inkscape:zoom="1.5358996"
     inkscape:cx="100.26697"
     inkscape:cy="169.2819"
     inkscape:window-width="1920"
     inkscape:window-height="1132"
     inkscape:window-x="0"
     inkscape:window-y="0"
     inkscape:window-maximized="1"
     inkscape:current-layer="layer2"
     showgrid="true"><inkscape:grid
       type="axonomgrid"
       id="grid1"
       units="mm"
       originx="1.1371899"
       originy="3.3780257"
       spacingx="0.99999999"
       spacingy="2.9999999"
       empcolor="#0099e5"
       empopacity="0.30196078"
       color="#0099e5"
       opacity="0.14901961"
       empspacing="5"
       dotted="false"
       gridanglex="30"
       gridanglez="30"
       enabled="true"
       visible="true" /></sodipodi:namedview><defs
     id="defs1" /><g
     inkscape:groupmode="layer"
     id="layer2"
     inkscape:label="Layer 2"
     transform="translate(-329.39326,-133.44683)"><path
       id="stroke"
       style="display:inline;fill:none;stroke:#000000;stroke-width:5.311;stroke-dasharray:none;stroke-opacity:1"
       class="stroke"
       inkscape:label="stroke"
       d="m 374.69557,136.10234 c -0.88429,-0.002 -1.75347,0.22925 -2.52026,0.66972 l -33.92971,19.59002 c -1.56118,0.90123 -2.52218,2.56764 -2.52026,4.37028 v 39.18004 c -0.002,1.80245 0.95924,3.46861 2.52026,4.36975 l 7.87342,4.54288 c -1.20891,6.64067 -2.59835,8.77317 -10.01076,15.72255 12.44546,0 21.96189,-1.62295 28.19725,-5.22293 l 7.8698,4.54752 c 0.76624,0.44246 1.63545,0.6754 2.52026,0.67541 h 5.2e-4 c 0.88442,-2.1e-4 1.75334,-0.23315 2.51923,-0.67541 l 33.93022,-19.59002 c 0.3043,-0.1758 0.58939,-0.38294 0.8506,-0.61805 1.0635,-0.95704 1.67014,-2.32098 1.66863,-3.7517 v -39.18004 c 0.001,-0.88349 -0.23046,-1.75173 -0.67076,-2.51768 l 10e-4,-5.1e-4 c -0.4425,-0.7694 -1.08033,-1.40831 -1.84898,-1.85209 L 377.2158,136.77206 c -0.76663,-0.44039 -1.63562,-0.67135 -2.51974,-0.66972 z"
       transform="translate(4.1666668e-6)" /><path
       id="light-part"
       style="display:inline;fill:#ffffff;stroke-width:4.61139"
       class="light-part"
       inkscape:label="light-part"
       d="m 374.69558,136.10235 c -0.88429,-0.002 -1.75347,0.22926 -2.52026,0.66973 L 338.2456,156.3621 c -1.56118,0.90123 -2.52217,2.56763 -2.52025,4.37027 v 39.18004 c -0.002,1.80245 0.95923,3.46862 2.52025,4.36976 l 7.87331,4.54268 c -1.20891,6.64067 -2.59808,8.77337 -10.01049,15.72275 12.44546,0 21.96166,-1.62277 28.19702,-5.22275 l 7.86988,4.54734 c 0.76624,0.44246 1.63545,0.6754 2.52026,0.67541 0,0 1.2e-4,-28.43752 0.002,-41.22281 2.8e-4,-1.73208 1.09826,-3.63393 2.59829,-4.49998 7.78761,-4.49622 35.65087,-20.58337 35.69808,-20.61063 v 5.2e-4 l 0.001,-5.2e-4 c -0.4425,-0.7694 -1.08034,-1.4083 -1.84899,-1.85208 l -33.93022,-19.59002 c -0.76663,-0.44039 -1.63563,-0.67136 -2.51975,-0.66973 z"
       sodipodi:nodetypes="scccccccccccscccccss" /><path
       id="dark-part"
       style="display:inline;fill:#ececec;stroke-width:4.61139"
       d="m 412.99401,158.21418 c -0.0472,0.0273 -27.91047,16.11441 -35.69808,20.61063 -1.50003,0.86605 -2.59801,2.7679 -2.59829,4.49998 -0.002,12.78529 -0.002,41.22281 -0.002,41.22281 h 5.1e-4 c 0.88442,-2.1e-4 1.75334,-0.23315 2.51923,-0.67541 l 33.93023,-19.59002 c 0.3043,-0.1758 0.58938,-0.38294 0.85059,-0.61805 1.0635,-0.95704 1.67014,-2.32099 1.66863,-3.75171 v -39.18004 c 0.001,-0.88349 -0.23046,-1.75172 -0.67076,-2.51767 z"
       inkscape:label="dark-part"
       class="dark-part" /><path
       id="die-pips"
       style="fill:#5b9bff;fill-opacity:1;stroke:none;stroke-width:4.61139;stroke-linecap:butt;stroke-linejoin:miter;stroke-dasharray:none;stroke-opacity:1"
       d="m 375.75,146.06 a 3.79,2.22 1.4 0 0 -2.67,0.62 3.79,2.22 1.4 0 0 0.04,3.14 3.79,2.22 1.4 0 0 5.36,0.06 3.79,2.22 1.4 0 0 -0.04,-3.14 3.79,2.22 1.4 0 0 -2.69,-0.68 z m -8.4,4.85 a 3.79,2.22 1.4 0 0 -2.67,0.62 3.79,2.22 1.4 0 0 0.04,3.14 3.79,2.22 1.4 0 0 5.36,0.06 3.79,2.22 1.4 0 0 -0.04,-3.14 3.79,2.22 1.4 0 0 -2.69,-0.68 z m 23.16,3.9 a 3.79,2.22 1.4 0 0 -2.67,0.62 3.79,2.22 1.4 0 0 0.04,3.14 3.79,2.22 1.4 0 0 5.36,0.06 3.79,2.22 1.4 0 0 -0.04,-3.14 3.79,2.22 1.4 0 0 -2.69,-0.68 z m -31.31,1.1 a 3.79,2.22 1.4 0 0 -2.67,0.62 3.79,2.22 1.4 0 0 0.04,3.14 3.79,2.22 1.4 0 0 5.36,0.06 3.79,2.22 1.4 0 0 -0.04,-3.14 3.79,2.22 1.4 0 0 -2.69,-0.68 z m 22.91,3.75 a 3.79,2.22 1.4 0 0 -2.67,0.62 3.79,2.22 1.4 0 0 0.04,3.14 3.79,2.22 1.4 0 0 5.36,0.06 3.79,2.22 1.4 0 0 -0.04,-3.14 3.79,2.22 1.4 0 0 -2.69,-0.68 z m -8.15,5 a 3.79,2.22 1.4 0 0 -2.67,0.62 3.79,2.22 1.4 0 0 0.04,3.14 3.79,2.22 1.4 0 0 5.36,0.06 3.79,2.22 1.4 0 0 -0.04,-3.14 3.79,2.22 1.4 0 0 -2.69,-0.68 z m -27.43,9.32 a 3.79,2.22 58.6 0 0 -1.37,1.89 3.79,2.22 58.6 0 0 2.74,4.61 3.79,2.22 58.6 0 0 2.74,-1.54 3.79,2.22 58.6 0 0 -2.74,-4.61 3.79,2.22 58.6 0 0 -1.37,-0.36 z m 56.34,0 a 2.22,3.79 31.4 0 0 -1.37,0.36 2.22,3.79 31.4 0 0 -2.74,4.61 2.22,3.79 31.4 0 0 2.74,1.54 2.22,3.79 31.4 0 0 2.74,-4.61 2.22,3.79 31.4 0 0 -1.37,-1.89 z m -41.38,8.4 a 3.79,2.22 58.6 0 0 -1.37,1.89 3.79,2.22 58.6 0 0 2.74,4.61 3.79,2.22 58.6 0 0 2.74,-1.54 3.79,2.22 58.6 0 0 -2.74,-4.61 3.79,2.22 58.6 0 0 -1.37,-0.36 z m 26.42,0 a 2.22,3.79 31.4 0 0 -1.37,0.36 2.22,3.79 31.4 0 0 -2.74,4.61 2.22,3.79 31.4 0 0 2.74,1.54 2.22,3.79 31.4 0 0 2.74,-4.61 2.22,3.79 31.4 0 0 -1.37,-1.89 z m -41.38,1.3 a 3.79,2.22 58.6 0 0 -1.37,1.89 3.79,2.22 58.6 0 0 2.74,4.61 3.79,2.22 58.6 0 0 2.74,-1.54 3.79,2.22 58.6 0 0 -2.74,-4.61 3.79,2.22 58.6 0 0 -1.37,-0.36 z m 56.34,0 a 2.22,3.79 31.4 0 0 -1.37,0.36 2.22,3.79 31.4 0 0 -2.74,4.61 2.22,3.79 31.4 0 0 2.74,1.54 2.22,3.79 31.4 0 0 2.74,-4.61 2.22,3.79 31.4 0 0 -1.37,-1.89 z m -41.38,8.4 a 3.79,2.22 58.6 0 0 -1.37,1.89 3.79,2.22 58.6 0 0 2.74,4.61 3.79,2.22 58.6 0 0 2.74,-1.54 3.79,2.22 58.6 0 0 -2.74,-4.61 3.79,2.22 58.6 0 0 -1.37,-0.36 z m 26.42,0 a 2.22,3.79 31.4 0 0 -1.37,0.36 2.22,3.79 31.4 0 0 -2.74,4.61 2.22,3.79 31.4 0 0 2.74,1.54 2.22,3.79 31.4 0 0 2.74,-4.61 2.22,3.79 31.4 0 0 -1.37,-1.89 z m -41.63,1.16 a 3.79,2.22 58.6 0 0 -1.37,1.89 3.79,2.22 58.6 0 0 2.74,4.61 3.79,2.22 58.6 0 0 2.74,-1.54 3.79,2.22 58.6 0 0 -2.74,-4.61 3.79,2.22 58.6 0 0 -1.37,-0.36 z m 56.84,0 a 2.22,3.79 31.4 0 0 -1.37,0.36 2.22,3.79 31.4 0 0 -2.74,4.61 2.22,3.79 31.4 0 0 2.74,1.54 2.22,3.79 31.4 0 0 2.74,-4.61 2.22,3.79 31.4 0 0 -1.37,-1.89 z m -41.89,8.4 a 3.79,2.22 58.6 0 0 -1.37,1.89 3.79,2.22 58.6 0 0 2.74,4.61 3.79,2.22 58.6 0 0 2.74,-1.54 3.79,2.22 58.6 0 0 -2.74,-4.61 3.79,2.22 58.6 0 0 -1.37,-0.36 z m 26.93,0 a 2.22,3.79 31.4 0 0 -1.37,0.36 2.22,3.79 31.4 0 0 -2.74,4.61 2.22,3.79 31.4 0 0 2.74,1.54 2.22,3.79 31.4 0 0 2.74,-4.61 2.22,3.79 31.4 0 0 -1.37,-1.89 z"
       inkscape:label="die-pips"
       class="die-pips" /></g></svg>
